<?xml version="1.0" encoding="UTF-8"?>
<!DOCTYPE svg PUBLIC "-//W3C//DTD SVG 1.1//EN" "http://www.w3.org/Graphics/SVG/1.1/DTD/svg11.dtd">
<!-- Creator: CorelDRAW (No para uso comercial) -->
<svg xmlns="http://www.w3.org/2000/svg" xml:space="preserve" width="24.9777mm" height="25.2941mm" version="1.1" style="shape-rendering:geometricPrecision; text-rendering:geometricPrecision; image-rendering:optimizeQuality; fill-rule:evenodd; clip-rule:evenodd"
viewBox="0 0 241.13 244.18"
 xmlns:xlink="http://www.w3.org/1999/xlink"
 xmlns:xodm="http://www.corel.com/coreldraw/odm/2003">
 <defs>
  <style type="text/css">
   <![CDATA[
    .fil0 {fill:white;fill-rule:nonzero}
   ]]>
  </style>
 </defs>
 <g id="Capa_x0020_1">
  <metadata id="CorelCorpID_0Corel-Layer"/>
  <g id="_105553232761024">
   <path class="fil0" d="M156.1 99.48c0,2.24 -1.82,4.06 -4.06,4.06 -2.24,0 -4.06,-1.82 -4.06,-4.06 0,-2.24 1.82,-4.06 4.06,-4.06 2.24,0 4.06,1.82 4.06,4.06z"/>
   <path class="fil0" d="M17.22 70.67c33.74,14.59 86.51,39.51 94.76,42.94 11.42,4.74 21.13,13 22.78,25.79 1.63,12.66 -3.34,25.73 -16.02,28.63 -11.03,2.51 -23.44,-6.32 -19.05,-18.47 1.47,-4.07 5.69,-6.7 10.05,-6.31 5.25,0.48 7.58,4.47 7.58,8.76 0,4.65 -4.66,4.44 -4.66,0.99 0,-3.98 -4.12,-5.14 -6.4,-2.19 -1.9,2.45 -1.28,7.41 0.96,9.28 8.32,6.93 18.2,-0.39 20.67,-7.71 4.97,-14.74 -3.17,-28.3 -19.03,-33.41 -20.78,-6.69 -63.16,-17.83 -81.81,-23.19 -6.75,-1.94 -13.39,-16.12 -12.93,-23.32 0.11,-1.68 1.64,-2.41 3.1,-1.78z"/>
   <path class="fil0" d="M25.87 124.47c0.33,-0.42 0.84,-0.72 1.54,-0.72l59.22 0c8.16,0 30.51,-0.84 31.25,13.19 0.12,2.21 -1.79,3.56 -3.09,1.63 -4.36,-6.47 -15.34,-3.26 -19.71,2.99 -5.77,8.25 -3.19,20.6 3.46,27.42 7.47,7.67 19.71,8.93 28.65,3.14 8.62,-5.58 13.48,-15.24 14.86,-27.57 0.76,-6.77 0.49,-13.37 3.17,-19.79 3.44,-8.27 10.89,-19.51 32.81,-19.51l10.88 0c0,0 -5.52,-1.29 -8.23,-2.06 -10.6,-3.02 -18.1,-12.72 -29.12,-14.4 -12.45,-1.89 -25.82,5.24 -32.51,15.34 -1.74,2.62 -4.04,1.47 -6.45,-0.1 -2.41,-1.57 -51.29,-31.46 -66.23,-42.95 -5.15,-3.96 -7.13,-16.8 -5.01,-23.36 0.5,-1.55 2.26,-1.93 3.45,-0.91 23.06,19.76 70.44,63.47 70.44,63.47 11.15,-17.66 32.23,-23.09 49.1,-13.22 4.47,2.62 8.47,6.11 13.12,8.41 2.86,1.41 6.1,2.11 9.18,2.83 9.09,2.11 18.38,3.45 27.62,4.69 6.2,0.84 12.42,1.6 18.66,2.24 3.87,0.4 4.07,6.19 0,6.19l-35.96 0 -21.05 0c-25.86,0 -27.63,19.07 -27.63,28.77 0,15.26 -5.41,24.99 -12.18,32.43 -14.76,16.2 -42.24,9.8 -48.92,-10.85 -0.3,-0.92 -0.54,-1.88 -0.75,-2.85 0,0 -7.07,14.03 -9.53,18.73 -5.48,10.46 -16.07,10.12 -16.55,10.12 -0.77,0 -1.48,-0.43 -1.83,-1.11 -0.36,-0.68 -0.3,-1.5 0.14,-2.14 0,0 23.78,-33.67 28.46,-40.6 4.68,-6.93 9.73,-13.72 17.9,-13.72 -3.04,-4.52 -41.82,3.52 -58.37,6.56 -8.86,1.63 -20.8,-6.57 -20.8,-12.3z"/>
  </g>
  <g id="_105553229738208">
   <path class="fil0" d="M82.14 10.6l-3.21 3.8c-1.72,-1.16 -3.32,-1.41 -4.82,-0.75 -1.25,0.56 -2.07,1.54 -2.46,2.96 -0.39,1.42 -0.24,2.9 0.44,4.44 0.67,1.51 1.64,2.56 2.92,3.15 1.27,0.59 2.58,0.59 3.93,-0.01 0.95,-0.42 1.63,-1.03 2.05,-1.85 0.42,-0.81 0.53,-1.73 0.35,-2.75l-4.23 1.87 -1.6 -3.63 9.14 -4.04 0.61 1.31c0.19,0.44 0.34,0.85 0.46,1.25 0.12,0.4 0.22,0.86 0.3,1.39 0.39,2.31 0.09,4.34 -0.89,6.1 -0.98,1.76 -2.58,3.13 -4.81,4.11 -2.6,1.15 -5.09,1.25 -7.48,0.31 -2.39,-0.94 -4.16,-2.73 -5.33,-5.36 -1.17,-2.65 -1.29,-5.2 -0.35,-7.66 0.94,-2.46 2.75,-4.28 5.43,-5.46 2.36,-1.04 4.7,-1.19 7.02,-0.45 0.49,0.15 0.87,0.29 1.14,0.43 0.27,0.14 0.74,0.42 1.4,0.83z"/>
   <path class="fil0" d="M96.04 6.53l0.94 4.66 1.16 -0.23c0.86,-0.17 1.48,-0.52 1.87,-1.03 0.39,-0.52 0.5,-1.16 0.35,-1.93 -0.3,-1.5 -1.31,-2.07 -3.01,-1.73l-1.32 0.27zm-1.74 15.81l-3.76 -18.58 6.88 -1.39c0.48,-0.1 0.94,-0.17 1.37,-0.22 0.44,-0.05 0.82,-0.09 1.16,-0.1 1.33,0.02 2.46,0.43 3.39,1.24 0.93,0.81 1.54,1.91 1.82,3.28 0.56,2.75 -0.4,4.72 -2.86,5.92l6.63 6.89 -5.49 1.11 -5.98 -6.87 1.57 7.76 -4.74 0.96z"/>
   <path class="fil0" d="M128.45 0l0.02 11.32c0,1.26 -0.06,2.26 -0.2,3 -0.33,1.56 -1.15,2.8 -2.46,3.71 -1.31,0.91 -2.95,1.37 -4.91,1.38 -1.26,0 -2.39,-0.18 -3.4,-0.54 -1,-0.36 -1.84,-0.91 -2.53,-1.63 -0.69,-0.73 -1.14,-1.49 -1.37,-2.28 -0.23,-0.8 -0.35,-1.99 -0.35,-3.59l-0.03 -11.32 4.84 -0.01 0.02 10.92c-0,0.33 0,0.64 0,0.92 0,0.28 0.03,0.64 0.08,1.09 0.06,0.45 0.33,0.86 0.83,1.26 0.5,0.39 1.13,0.59 1.88,0.59 0.95,-0 1.68,-0.3 2.18,-0.9 0.24,-0.3 0.4,-0.65 0.48,-1.04 0.08,-0.39 0.11,-1.04 0.11,-1.93l-0.02 -10.92 4.81 -0.01z"/>
   <path class="fil0" d="M142.42 5.86l-0.88 4.41 1.32 0.26c0.77,0.16 1.42,0.08 1.95,-0.23 0.53,-0.31 0.86,-0.82 1.01,-1.54 0.28,-1.43 -0.39,-2.3 -2.02,-2.63l-1.37 -0.27zm-7.7 13.83l3.72 -18.59 6.47 1.3c1.01,0.2 1.81,0.42 2.4,0.64 1.37,0.54 2.34,1.41 2.91,2.59 0.57,1.19 0.69,2.61 0.36,4.26 -0.39,1.93 -1.2,3.29 -2.46,4.1 -1.25,0.81 -2.89,1.01 -4.92,0.6l-2.42 -0.48 -1.31 6.55 -4.74 -0.95z"/>
   <polygon class="fil0" points="152.92,23.94 159.85,6.29 170.23,10.37 168.84,13.92 162.96,11.61 161.71,14.79 166.8,16.79 165.41,20.34 160.32,18.34 158.82,22.16 164.89,24.55 163.49,28.1 "/>
   <path class="fil0" d="M180.8 20.86l-5.56 8.71 1.51 0.97c1.14,0.73 2.32,0.91 3.55,0.54 1.23,-0.36 2.26,-1.19 3.09,-2.49 0.79,-1.24 1.07,-2.52 0.83,-3.82 -0.24,-1.31 -0.93,-2.33 -2.09,-3.06l-1.33 -0.85zm-11.96 9.75l10.2 -15.99 5.26 3.35c0.97,0.62 1.81,1.28 2.49,1.96 1.44,1.42 2.23,3.15 2.37,5.18 0.14,2.03 -0.41,4.01 -1.63,5.93 -1.55,2.42 -3.53,3.92 -5.96,4.5 -2.42,0.57 -4.81,0.12 -7.14,-1.37l-5.59 -3.57z"/>
   <path class="fil0" d="M187.28 40.18l3.87 -1.59c-0.11,2.38 0.42,4.13 1.59,5.24 0.51,0.48 1.06,0.75 1.66,0.8 0.6,0.04 1.1,-0.14 1.49,-0.56 0.32,-0.33 0.43,-0.76 0.34,-1.28 -0.11,-0.39 -0.47,-1.18 -1.08,-2.37 -0.46,-0.84 -0.77,-1.5 -0.95,-1.96 -0.18,-0.46 -0.3,-0.95 -0.36,-1.47 -0.15,-1.57 0.32,-2.94 1.42,-4.09 1.23,-1.3 2.72,-1.91 4.47,-1.84 1.75,0.07 3.35,0.79 4.82,2.18 0.81,0.77 1.43,1.59 1.85,2.45 0.42,0.86 0.69,1.85 0.8,2.97l-3.8 1.21c-0.16,-1.75 -0.64,-3 -1.45,-3.78 -0.42,-0.4 -0.87,-0.61 -1.36,-0.65 -0.49,-0.04 -0.89,0.12 -1.22,0.46 -0.31,0.33 -0.45,0.73 -0.4,1.18 0.02,0.24 0.09,0.49 0.21,0.76 0.12,0.27 0.38,0.78 0.8,1.54 0.73,1.37 1.17,2.51 1.32,3.43 0.17,1.52 -0.33,2.9 -1.51,4.15 -1.33,1.4 -2.89,2.08 -4.67,2.06 -1.79,-0.03 -3.44,-0.77 -4.97,-2.22 -1.92,-1.82 -2.87,-4.03 -2.85,-6.62z"/>
   <path class="fil0" d="M212.68 53.96l-4.78 1.55 2.39 3.34 3.02 -4.01 0.68 -0.81c0.28,-0.31 0.58,-0.61 0.92,-0.91 0.33,-0.3 0.74,-0.63 1.23,-0.98 -0.54,0.39 -0.98,0.68 -1.31,0.88 -0.33,0.2 -0.72,0.38 -1.15,0.56l-0.98 0.38zm-14.66 -0.14l19.31 -5.62 2.93 4.08 -11.52 16.48 -2.91 -4.06 2.22 -2.95 -3.62 -5.05 -3.51 1.16 -2.9 -4.04z"/>
   <path class="fil0" d="M232.2 79.3l-4.18 -0.78c0.17,-0.74 0.22,-1.41 0.18,-1.98 -0.05,-0.57 -0.22,-1.18 -0.5,-1.82 -0.61,-1.36 -1.58,-2.29 -2.9,-2.79 -1.32,-0.5 -2.67,-0.45 -4.02,0.17 -1.39,0.62 -2.34,1.59 -2.86,2.91 -0.51,1.31 -0.46,2.66 0.16,4.04 0.32,0.72 0.74,1.31 1.26,1.77 0.35,0.32 0.85,0.64 1.47,0.95l-2.23 3.57c-0.45,-0.22 -0.8,-0.41 -1.06,-0.56 -0.49,-0.28 -0.92,-0.59 -1.29,-0.95 -1.09,-0.97 -1.95,-2.15 -2.58,-3.54 -1.14,-2.53 -1.23,-4.98 -0.29,-7.37 0.95,-2.38 2.72,-4.16 5.33,-5.34 2.59,-1.16 5.12,-1.31 7.58,-0.42 2.46,0.88 4.26,2.59 5.4,5.11 0.56,1.25 0.87,2.52 0.94,3.82 0.03,0.49 0.01,0.95 -0.05,1.41 -0.06,0.45 -0.18,1.05 -0.36,1.8z"/>
  </g>
  <g id="_105553230908704">
   <path class="fil0" d="M16.43 115.15l-13.62 -0.53 -0.1 2.64c-0.07,1.85 0.51,3.41 1.76,4.66 1.25,1.26 2.86,1.92 4.83,2 1.95,0.07 3.59,-0.5 4.93,-1.72 1.34,-1.22 2.04,-2.8 2.11,-4.74l0.09 -2.33zm-16.2 -3.7l19.04 0.74 -0.2 5.05c-0.05,1.25 -0.22,2.37 -0.5,3.34 -0.61,1.99 -1.76,3.57 -3.48,4.72 -1.71,1.16 -3.67,1.7 -5.89,1.61 -2.82,-0.11 -5.08,-1.07 -6.79,-2.88 -1.71,-1.81 -2.51,-4.12 -2.4,-6.92l0.22 -5.66z"/>
   <polygon class="fil0" points="0.12,132.76 19.04,130.49 20.26,140.63 17.74,140.93 16.88,133.84 11.94,134.44 12.68,140.53 10.21,140.83 9.48,134.73 3.01,135.51 3.9,142.91 1.38,143.22 "/>
   <path class="fil0" d="M5.29 146.99l2.4 1.27c-1.58,1.74 -2.14,3.47 -1.67,5.19 0.25,0.92 0.75,1.62 1.49,2.09 0.75,0.47 1.54,0.6 2.38,0.38 0.73,-0.2 1.23,-0.63 1.5,-1.31 0.27,-0.67 0.47,-1.73 0.62,-3.15 0.12,-1.18 0.23,-1.99 0.32,-2.42 0.1,-0.43 0.26,-0.88 0.5,-1.37 0.6,-1.24 1.61,-2.05 3.04,-2.43 1.55,-0.42 2.97,-0.22 4.26,0.6 1.29,0.81 2.16,2.05 2.6,3.72 0.62,2.3 0.14,4.34 -1.43,6.11l-2.18 -1.47c1.14,-1.26 1.53,-2.57 1.16,-3.93 -0.21,-0.78 -0.63,-1.38 -1.25,-1.77 -0.62,-0.4 -1.29,-0.5 -2.03,-0.31 -0.63,0.17 -1.08,0.52 -1.36,1.05 -0.16,0.28 -0.28,0.62 -0.37,1.03 -0.08,0.41 -0.18,1.09 -0.28,2.05 -0.11,0.96 -0.22,1.71 -0.33,2.24 -0.11,0.53 -0.27,1.04 -0.47,1.51 -0.57,1.41 -1.64,2.33 -3.2,2.75 -1.72,0.47 -3.29,0.25 -4.69,-0.63 -1.41,-0.88 -2.36,-2.25 -2.86,-4.11 -0.72,-2.68 -0.1,-5.04 1.85,-7.1z"/>
   <path class="fil0" d="M22.7 166.08l-7.12 0.45 2.45 5.5 5.09 -5.01c0.14,-0.12 0.28,-0.25 0.44,-0.38 0.15,-0.13 0.28,-0.24 0.39,-0.33 0.1,-0.08 0.25,-0.19 0.45,-0.31 0.2,-0.13 0.46,-0.28 0.8,-0.47 -0.33,0.15 -0.62,0.25 -0.86,0.3 -0.25,0.05 -0.45,0.1 -0.6,0.13l-1.02 0.12zm-16.12 -2.13l20.5 -0.82 1.15 2.59 -14.3 14.72 -1.31 -2.94 3.58 -3.6 -3.23 -7.25 -5.07 0.26 -1.31 -2.94z"/>
   <path class="fil0" d="M32.04 178.17l-5.38 3.52 0.89 1.35c0.64,0.97 1.38,1.58 2.24,1.81 0.85,0.23 1.71,0.06 2.58,-0.5 1.74,-1.13 1.95,-2.71 0.63,-4.71l-0.96 -1.46zm-15.5 6.48l15.94 -10.44 2.77 4.23c0.25,0.38 0.48,0.76 0.68,1.13 0.2,0.37 0.37,0.71 0.5,1 0.43,1.17 0.44,2.32 0.04,3.46 -0.41,1.13 -1.18,2.07 -2.33,2.82 -2.37,1.56 -4.62,1.27 -6.74,-0.84l-3.92 9.25 -1.98 -3.04 4.49 -10.09 -7.77 5.09 -1.68 -2.57z"/>
   <path class="fil0" d="M41.06 190.53l-4.81 4.27 1.07 1.21c0.77,0.87 1.6,1.36 2.48,1.46 0.88,0.11 1.71,-0.19 2.48,-0.87 1.55,-1.38 1.53,-2.96 -0.06,-4.76l-1.16 -1.31zm-14.39 8.66l14.25 -12.65 3.36 3.78c0.3,0.34 0.58,0.68 0.84,1.03 0.25,0.34 0.47,0.64 0.64,0.92 0.6,1.1 0.78,2.23 0.54,3.41 -0.24,1.18 -0.87,2.22 -1.9,3.13 -2.12,1.88 -4.39,1.93 -6.79,0.14l-2.53 9.72 -2.4 -2.72 2.98 -10.64 -6.95 6.16 -2.04 -2.29z"/>
   <path class="fil0" d="M56.19 204.91c-1.53,-1.2 -3.23,-1.68 -5.13,-1.43 -1.89,0.25 -3.46,1.16 -4.69,2.72 -1.22,1.55 -1.73,3.28 -1.53,5.19 0.2,1.91 1.06,3.46 2.57,4.65 1.53,1.2 3.23,1.68 5.13,1.44 1.89,-0.24 3.46,-1.14 4.71,-2.72 1.22,-1.55 1.73,-3.29 1.53,-5.2 -0.2,-1.91 -1.06,-3.47 -2.59,-4.67zm-12.21 -0.59c1.75,-2.22 3.95,-3.49 6.61,-3.82 2.66,-0.33 5.12,0.39 7.36,2.16 2.23,1.76 3.5,3.98 3.82,6.65 0.32,2.68 -0.4,5.12 -2.14,7.34 -1.75,2.22 -3.96,3.48 -6.64,3.8 -2.68,0.32 -5.13,-0.4 -7.36,-2.16 -2.23,-1.76 -3.51,-3.97 -3.82,-6.63 -0.32,-2.66 0.4,-5.11 2.16,-7.34z"/>
   <polygon class="fil0" points="59.34,227.26 68.46,210.53 71.16,212 63.33,226.36 68.63,229.24 67.33,231.62 "/>
   <polygon class="fil0" points="71.7,233.59 78.82,215.92 81.67,217.06 75.56,232.23 81.16,234.49 80.15,236.99 "/>
   <path class="fil0" d="M97.14 224.49c-1.89,-0.43 -3.64,-0.13 -5.24,0.91 -1.6,1.03 -2.63,2.52 -3.07,4.47 -0.44,1.93 -0.16,3.71 0.84,5.35 1,1.64 2.44,2.67 4.31,3.1 1.89,0.43 3.64,0.14 5.25,-0.89 1.61,-1.03 2.64,-2.52 3.09,-4.48 0.44,-1.93 0.16,-3.71 -0.84,-5.35 -1,-1.64 -2.45,-2.67 -4.34,-3.11zm-11.28 4.7c0.63,-2.75 2.07,-4.85 4.34,-6.28 2.26,-1.44 4.79,-1.84 7.57,-1.2 2.77,0.63 4.87,2.09 6.3,4.37 1.43,2.28 1.84,4.8 1.21,7.55 -0.63,2.75 -2.08,4.84 -4.36,6.28 -2.28,1.43 -4.81,1.83 -7.57,1.2 -2.77,-0.63 -4.87,-2.08 -6.3,-4.35 -1.42,-2.27 -1.82,-4.8 -1.19,-7.56z"/>
   <path class="fil0" d="M113.58 240.9l1.82 -2.78c1.42,1.83 2.96,2.75 4.62,2.75 0.84,0 1.55,-0.24 2.12,-0.73 0.57,-0.48 0.86,-1.09 0.86,-1.81 0,-0.65 -0.26,-1.16 -0.76,-1.53 -0.44,-0.3 -1.34,-0.7 -2.69,-1.19 -1.02,-0.37 -1.73,-0.66 -2.13,-0.87 -0.41,-0.21 -0.82,-0.49 -1.24,-0.84 -1.09,-0.95 -1.63,-2.19 -1.63,-3.73 -0,-1.69 0.6,-3.08 1.8,-4.17 1.2,-1.09 2.73,-1.64 4.6,-1.64 2.33,-0 4.21,0.86 5.66,2.59l-2.06 2.51c-1.09,-1.3 -2.26,-1.96 -3.51,-1.96 -0.7,0 -1.29,0.2 -1.77,0.61 -0.47,0.4 -0.71,0.93 -0.71,1.56 -0,0.55 0.2,1 0.61,1.37 0.25,0.23 0.51,0.41 0.79,0.56 0.28,0.14 0.86,0.36 1.73,0.67 0.87,0.31 1.56,0.59 2.08,0.83 0.51,0.25 0.97,0.53 1.37,0.85 1.2,0.95 1.8,2.26 1.8,3.91 -0,1.85 -0.64,3.37 -1.91,4.54 -1.27,1.18 -2.91,1.77 -4.92,1.77 -2.68,-0 -4.85,-1.1 -6.51,-3.29z"/>
   <path class="fil0" d="M144.37 222.14l1.89 11.38c0.2,1.22 0.3,2.2 0.28,2.96 -0.08,1.59 -0.67,2.93 -1.79,4.02 -1.12,1.1 -2.59,1.8 -4.44,2.1 -1.16,0.19 -2.26,0.18 -3.3,-0.02 -1.03,-0.2 -1.93,-0.59 -2.7,-1.17 -0.77,-0.58 -1.34,-1.26 -1.72,-2.04 -0.38,-0.78 -0.7,-1.92 -0.95,-3.44l-1.89 -11.38 3.86 -0.64 1.83 11.04c0.14,0.85 0.3,1.6 0.49,2.23 0.18,0.63 0.61,1.13 1.29,1.5 0.68,0.37 1.49,0.48 2.43,0.32 1.17,-0.19 2,-0.71 2.51,-1.54 0.27,-0.42 0.41,-0.85 0.43,-1.29 0.02,-0.44 -0.07,-1.23 -0.26,-2.36l-1.83 -11.04 3.86 -0.64z"/>
   <path class="fil0" d="M151.69 236.91l0.83 -3.22c1.94,1.28 3.69,1.65 5.25,1.12 0.8,-0.27 1.39,-0.73 1.78,-1.37 0.38,-0.64 0.46,-1.31 0.23,-1.99 -0.21,-0.62 -0.61,-1.02 -1.22,-1.2 -0.52,-0.14 -1.49,-0.23 -2.93,-0.26 -1.08,-0.02 -1.85,-0.07 -2.3,-0.14 -0.45,-0.07 -0.93,-0.2 -1.44,-0.4 -1.34,-0.55 -2.26,-1.55 -2.75,-3 -0.55,-1.6 -0.43,-3.11 0.35,-4.53 0.78,-1.42 2.06,-2.43 3.82,-3.03 2.2,-0.75 4.26,-0.54 6.19,0.63l-1.14 3.04c-1.46,-0.88 -2.77,-1.12 -3.96,-0.72 -0.67,0.23 -1.16,0.61 -1.48,1.14 -0.32,0.54 -0.37,1.1 -0.17,1.7 0.17,0.52 0.52,0.89 1.02,1.11 0.31,0.14 0.62,0.22 0.93,0.27 0.31,0.04 0.93,0.07 1.86,0.08 0.92,0.01 1.67,0.05 2.23,0.12 0.57,0.07 1.09,0.19 1.58,0.36 1.44,0.51 2.43,1.56 2.96,3.12 0.6,1.75 0.48,3.39 -0.34,4.92 -0.82,1.53 -2.18,2.61 -4.09,3.26 -2.54,0.87 -4.94,0.53 -7.22,-1z"/>
   <polygon class="fil0" points="162.1,219.76 160.54,216.67 171.92,210.9 173.48,213.99 169.52,216 176.57,229.93 173.08,231.7 166.02,217.77 "/>
   <polygon class="fil0" points="184.42,225.53 173.61,209.81 182.43,203.73 184.22,206.33 178.62,210.18 181.05,213.71 185.86,210.39 187.65,212.99 182.83,216.31 185.86,220.71 191.64,216.73 193.43,219.33 "/>
   <path class="fil0" d="M198.51 215.47l-13.32 -13.66 2.67 -2.6 14.1 2.14c0.71,0.12 1.76,0.52 3.17,1.2 -0.55,-0.4 -1.12,-0.83 -1.73,-1.27 -0.6,-0.44 -0.96,-0.72 -1.07,-0.84l-7.67 -7.86 2.8 -2.73 13.32 13.66 -2.59 2.53 -14.35 -2.12c-0.63,-0.09 -1.67,-0.47 -3.09,-1.12l0.5 0.36 0.74 0.5 1.48 1.07 7.83 8.03 -2.8 2.73z"/>
   <polygon class="fil0" points="201.32,190.4 198.53,188.35 206.08,178.07 208.87,180.13 206.24,183.71 218.82,192.95 216.5,196.11 203.92,186.87 "/>
   <path class="fil0" d="M215.05 174.51l4.23 4.61 2.44 -4.55 -6.18 -0.97 -1.02 -0.22c-0.42,-0.12 -0.73,-0.23 -0.96,-0.32 -0.22,-0.09 -0.56,-0.25 -1.01,-0.5 0.47,0.25 0.8,0.45 1,0.6 0.32,0.27 0.57,0.47 0.75,0.61l0.75 0.73zm7.36 13.71l-13.4 -15.38 1.79 -3.33 20.24 2.63 -1.95 3.64 -4.31 -0.69 -3.37 6.3 2.95 3.23 -1.94 3.62z"/>
   <path class="fil0" d="M226.1 161.23l4.89 1.63 0.76 -2.28c0.33,-0.99 0.37,-1.84 0.13,-2.55 -0.25,-0.71 -0.75,-1.2 -1.52,-1.46 -0.59,-0.2 -1.16,-0.18 -1.72,0.04 -0.56,0.22 -0.99,0.63 -1.3,1.21 -0.05,0.08 -0.13,0.26 -0.25,0.56 -0.13,0.29 -0.22,0.53 -0.28,0.72l-0.71 2.13zm-7.23 -2.41l4.34 1.45 0.54 -1.61c0.27,-0.82 0.29,-1.53 0.04,-2.13 -0.25,-0.6 -0.71,-1.02 -1.4,-1.24 -0.67,-0.22 -1.3,-0.14 -1.9,0.26 -0.45,0.28 -0.83,0.91 -1.15,1.88l-0.47 1.41zm13.88 8.75l-18.1 -6.03 1.8 -5.4c0.3,-0.89 0.59,-1.62 0.88,-2.22 0.55,-1.1 1.36,-1.86 2.42,-2.29 1.06,-0.42 2.18,-0.44 3.35,-0.05 1.78,0.59 2.76,1.77 2.96,3.52 0.6,-1.08 1.41,-1.82 2.42,-2.2 1.01,-0.39 2.12,-0.38 3.33,0.02 1.62,0.54 2.72,1.51 3.3,2.91 0.57,1.4 0.54,3.05 -0.1,4.96l-2.26 6.78z"/>
   <polygon class="fil0" points="238.27,149.05 219.5,145.64 220.2,141.79 235.59,144.58 236.63,138.8 240.02,139.42 "/>
   <polygon class="fil0" points="240.55,134.75 221.5,133.74 222.07,123.03 225.21,123.2 224.85,129.99 229.13,130.22 229.44,124.38 232.59,124.55 232.28,130.39 237.61,130.67 237.99,123.67 241.13,123.83 "/>
  </g>
 </g>
</svg>
